<mxfile host="Electron" agent="Mozilla/5.0 (X11; Linux x86_64) AppleWebKit/537.36 (KHTML, like Gecko) draw.io/24.7.8 Chrome/128.0.6613.36 Electron/32.0.1 Safari/537.36" version="24.7.8">
  <diagram name="Page-1" id="7e0a89b8-554c-2b80-1dc8-d5c74ca68de4">
    <mxGraphModel dx="1405" dy="832" grid="1" gridSize="10" guides="1" tooltips="1" connect="1" arrows="1" fold="1" page="1" pageScale="1" pageWidth="1100" pageHeight="850" background="none" math="0" shadow="0">
      <root>
        <mxCell id="0" />
        <mxCell id="1" parent="0" />
        <mxCell id="F8mklJY-4b8WDCU4vkqr-1" value="" style="verticalLabelPosition=bottom;shadow=0;dashed=0;align=center;html=1;verticalAlign=top;shape=mxgraph.electrical.radio.electret_microphone;" vertex="1" parent="1">
          <mxGeometry x="120" y="230" width="70" height="70" as="geometry" />
        </mxCell>
        <mxCell id="F8mklJY-4b8WDCU4vkqr-3" value="" style="endArrow=none;html=1;rounded=0;exitX=1;exitY=0.5;exitDx=0;exitDy=0;exitPerimeter=0;entryX=0;entryY=0.5;entryDx=0;entryDy=0;entryPerimeter=0;" edge="1" parent="1" source="F8mklJY-4b8WDCU4vkqr-1" target="F8mklJY-4b8WDCU4vkqr-2">
          <mxGeometry width="50" height="50" relative="1" as="geometry">
            <mxPoint x="240" y="480" as="sourcePoint" />
            <mxPoint x="290" y="430" as="targetPoint" />
          </mxGeometry>
        </mxCell>
        <mxCell id="F8mklJY-4b8WDCU4vkqr-4" value="" style="endArrow=open;html=1;strokeWidth=1;endFill=0;endSize=20;rounded=0;exitX=1;exitY=0.5;exitDx=0;exitDy=0;exitPerimeter=0;" edge="1" parent="1" source="F8mklJY-4b8WDCU4vkqr-2">
          <mxGeometry width="100" relative="1" as="geometry">
            <mxPoint x="350" y="270" as="sourcePoint" />
            <mxPoint x="120" y="480" as="targetPoint" />
            <Array as="points">
              <mxPoint x="400" y="265" />
              <mxPoint x="400" y="480" />
            </Array>
          </mxGeometry>
        </mxCell>
        <mxCell id="F8mklJY-4b8WDCU4vkqr-5" value="" style="endArrow=open;html=1;strokeWidth=1;endFill=0;endSize=20;rounded=0;exitX=0;exitY=0.5;exitDx=0;exitDy=0;exitPerimeter=0;" edge="1" parent="1" source="F8mklJY-4b8WDCU4vkqr-7">
          <mxGeometry width="100" relative="1" as="geometry">
            <mxPoint x="340" y="520" as="sourcePoint" />
            <mxPoint x="120" y="520" as="targetPoint" />
          </mxGeometry>
        </mxCell>
        <mxCell id="F8mklJY-4b8WDCU4vkqr-6" value="" style="pointerEvents=1;verticalLabelPosition=bottom;shadow=0;dashed=0;align=center;html=1;verticalAlign=top;shape=mxgraph.electrical.signal_sources.signal_ground;" vertex="1" parent="1">
          <mxGeometry x="755" y="620" width="45" height="30" as="geometry" />
        </mxCell>
        <mxCell id="F8mklJY-4b8WDCU4vkqr-7" value="" style="pointerEvents=1;fillColor=strokeColor;verticalLabelPosition=bottom;shadow=0;dashed=0;align=center;html=1;verticalAlign=top;shape=mxgraph.electrical.diodes.diode;" vertex="1" parent="1">
          <mxGeometry x="440" y="490" width="100" height="60" as="geometry" />
        </mxCell>
        <mxCell id="F8mklJY-4b8WDCU4vkqr-8" value="" style="pointerEvents=1;verticalLabelPosition=bottom;shadow=0;dashed=0;align=center;html=1;verticalAlign=top;shape=mxgraph.electrical.capacitors.capacitor_1;rotation=90;" vertex="1" parent="1">
          <mxGeometry x="530" y="540" width="100" height="60" as="geometry" />
        </mxCell>
        <mxCell id="F8mklJY-4b8WDCU4vkqr-11" value="" style="pointerEvents=1;verticalLabelPosition=bottom;shadow=0;dashed=0;align=center;html=1;verticalAlign=top;shape=mxgraph.electrical.resistors.resistor_1;rotation=90;" vertex="1" parent="1">
          <mxGeometry x="610" y="560" width="100" height="20" as="geometry" />
        </mxCell>
        <mxCell id="F8mklJY-4b8WDCU4vkqr-13" value="" style="verticalLabelPosition=bottom;shadow=0;dashed=0;align=center;html=1;verticalAlign=top;shape=mxgraph.electrical.mosfets1.n-channel_mosfet_1;" vertex="1" parent="1">
          <mxGeometry x="710" y="450" width="95" height="100" as="geometry" />
        </mxCell>
        <mxCell id="F8mklJY-4b8WDCU4vkqr-14" value="" style="pointerEvents=1;fillColor=strokeColor;verticalLabelPosition=bottom;shadow=0;dashed=0;align=center;html=1;verticalAlign=top;shape=mxgraph.electrical.diodes.diode;rotation=-90;" vertex="1" parent="1">
          <mxGeometry x="690" y="369" width="100" height="60" as="geometry" />
        </mxCell>
        <mxCell id="F8mklJY-4b8WDCU4vkqr-15" value="" style="pointerEvents=1;verticalLabelPosition=bottom;shadow=0;dashed=0;align=center;html=1;verticalAlign=top;shape=mxgraph.electrical.inductors.inductor_3;rotation=90;" vertex="1" parent="1">
          <mxGeometry x="780" y="395" width="100" height="8" as="geometry" />
        </mxCell>
        <mxCell id="F8mklJY-4b8WDCU4vkqr-16" value="" style="pointerEvents=1;verticalLabelPosition=bottom;shadow=0;dashed=0;align=center;html=1;verticalAlign=top;shape=mxgraph.electrical.inductors.iron_core;rotation=90;" vertex="1" parent="1">
          <mxGeometry x="816" y="395" width="64" height="4" as="geometry" />
        </mxCell>
        <mxCell id="F8mklJY-4b8WDCU4vkqr-17" value="" style="endArrow=oval;html=1;rounded=0;startArrow=oval;startFill=1;endFill=1;" edge="1" parent="1">
          <mxGeometry width="50" height="50" relative="1" as="geometry">
            <mxPoint x="580" y="520" as="sourcePoint" />
            <mxPoint x="660" y="520" as="targetPoint" />
          </mxGeometry>
        </mxCell>
        <mxCell id="F8mklJY-4b8WDCU4vkqr-18" value="" style="rounded=1;whiteSpace=wrap;html=1;fillColor=none;strokeColor=#009900;dashed=1;strokeWidth=3;" vertex="1" parent="1">
          <mxGeometry x="90" y="130" width="290" height="250" as="geometry" />
        </mxCell>
        <mxCell id="F8mklJY-4b8WDCU4vkqr-20" value="" style="pointerEvents=1;verticalLabelPosition=bottom;shadow=0;dashed=0;align=center;html=1;verticalAlign=top;shape=mxgraph.electrical.signal_sources.signal_ground;" vertex="1" parent="1">
          <mxGeometry x="245" y="315" width="45" height="30" as="geometry" />
        </mxCell>
        <mxCell id="F8mklJY-4b8WDCU4vkqr-22" value="V&lt;sub&gt;dd&lt;/sub&gt;" style="verticalLabelPosition=top;verticalAlign=bottom;shape=mxgraph.electrical.signal_sources.vdd;shadow=0;dashed=0;align=center;strokeWidth=1;fontSize=24;html=1;flipV=1;" vertex="1" parent="1">
          <mxGeometry x="237.5" y="200" width="60" height="40" as="geometry" />
        </mxCell>
        <mxCell id="F8mklJY-4b8WDCU4vkqr-23" value="" style="endArrow=none;html=1;rounded=0;exitX=0.5;exitY=0;exitDx=0;exitDy=0;exitPerimeter=0;" edge="1" parent="1" source="F8mklJY-4b8WDCU4vkqr-20">
          <mxGeometry width="50" height="50" relative="1" as="geometry">
            <mxPoint x="520" y="280" as="sourcePoint" />
            <mxPoint x="266" y="280" as="targetPoint" />
          </mxGeometry>
        </mxCell>
        <mxCell id="F8mklJY-4b8WDCU4vkqr-2" value="" style="verticalLabelPosition=bottom;shadow=0;dashed=0;align=center;html=1;verticalAlign=top;shape=mxgraph.electrical.abstract.amplifier;" vertex="1" parent="1">
          <mxGeometry x="230" y="215" width="90" height="100" as="geometry" />
        </mxCell>
        <mxCell id="F8mklJY-4b8WDCU4vkqr-25" value="V&lt;sub&gt;dd&lt;/sub&gt;" style="verticalLabelPosition=top;verticalAlign=bottom;shape=mxgraph.electrical.signal_sources.vdd;shadow=0;dashed=0;align=center;strokeWidth=1;fontSize=24;html=1;flipV=1;" vertex="1" parent="1">
          <mxGeometry x="750" y="269" width="60" height="40" as="geometry" />
        </mxCell>
        <mxCell id="F8mklJY-4b8WDCU4vkqr-26" value="" style="endArrow=none;html=1;rounded=0;entryX=0;entryY=1;entryDx=0;entryDy=0;entryPerimeter=0;startArrow=oval;startFill=1;" edge="1" parent="1" target="F8mklJY-4b8WDCU4vkqr-15">
          <mxGeometry width="50" height="50" relative="1" as="geometry">
            <mxPoint x="780" y="309" as="sourcePoint" />
            <mxPoint x="820" y="309" as="targetPoint" />
            <Array as="points">
              <mxPoint x="826" y="309" />
            </Array>
          </mxGeometry>
        </mxCell>
        <mxCell id="F8mklJY-4b8WDCU4vkqr-27" value="" style="endArrow=none;html=1;rounded=0;entryX=0;entryY=0.5;entryDx=0;entryDy=0;entryPerimeter=0;" edge="1" parent="1" target="F8mklJY-4b8WDCU4vkqr-11">
          <mxGeometry width="50" height="50" relative="1" as="geometry">
            <mxPoint x="660" y="520" as="sourcePoint" />
            <mxPoint x="650" y="400" as="targetPoint" />
          </mxGeometry>
        </mxCell>
        <mxCell id="F8mklJY-4b8WDCU4vkqr-28" value="" style="endArrow=none;html=1;rounded=0;entryX=1;entryY=0.5;entryDx=0;entryDy=0;entryPerimeter=0;" edge="1" parent="1" target="F8mklJY-4b8WDCU4vkqr-11">
          <mxGeometry width="50" height="50" relative="1" as="geometry">
            <mxPoint x="660" y="620" as="sourcePoint" />
            <mxPoint x="610" y="400" as="targetPoint" />
          </mxGeometry>
        </mxCell>
        <mxCell id="F8mklJY-4b8WDCU4vkqr-29" value="" style="endArrow=none;html=1;rounded=0;entryX=1;entryY=1;entryDx=0;entryDy=0;entryPerimeter=0;exitX=0.7;exitY=0;exitDx=0;exitDy=0;exitPerimeter=0;startArrow=oval;startFill=1;" edge="1" parent="1" source="F8mklJY-4b8WDCU4vkqr-13" target="F8mklJY-4b8WDCU4vkqr-15">
          <mxGeometry width="50" height="50" relative="1" as="geometry">
            <mxPoint x="500" y="289" as="sourcePoint" />
            <mxPoint x="550" y="239" as="targetPoint" />
          </mxGeometry>
        </mxCell>
        <mxCell id="F8mklJY-4b8WDCU4vkqr-30" value="" style="endArrow=oval;html=1;rounded=0;exitX=1;exitY=0.5;exitDx=0;exitDy=0;exitPerimeter=0;startArrow=oval;startFill=1;endFill=1;" edge="1" parent="1" source="F8mklJY-4b8WDCU4vkqr-11">
          <mxGeometry width="50" height="50" relative="1" as="geometry">
            <mxPoint x="520" y="370" as="sourcePoint" />
            <mxPoint x="777" y="620" as="targetPoint" />
            <Array as="points">
              <mxPoint x="777" y="620" />
            </Array>
          </mxGeometry>
        </mxCell>
        <mxCell id="F8mklJY-4b8WDCU4vkqr-33" value="" style="endArrow=open;html=1;strokeWidth=1;endFill=0;endSize=20;rounded=0;exitX=0;exitY=0.5;exitDx=0;exitDy=0;exitPerimeter=0;" edge="1" parent="1" source="F8mklJY-4b8WDCU4vkqr-96">
          <mxGeometry width="100" relative="1" as="geometry">
            <mxPoint x="440" y="820" as="sourcePoint" />
            <mxPoint x="120" y="560" as="targetPoint" />
            <Array as="points">
              <mxPoint x="360" y="820" />
              <mxPoint x="360" y="560" />
            </Array>
          </mxGeometry>
        </mxCell>
        <mxCell id="F8mklJY-4b8WDCU4vkqr-34" value="" style="pointerEvents=1;verticalLabelPosition=bottom;shadow=0;dashed=0;align=center;html=1;verticalAlign=top;shape=mxgraph.electrical.signal_sources.signal_ground;" vertex="1" parent="1">
          <mxGeometry x="755" y="920" width="45" height="30" as="geometry" />
        </mxCell>
        <mxCell id="F8mklJY-4b8WDCU4vkqr-37" value="" style="pointerEvents=1;verticalLabelPosition=bottom;shadow=0;dashed=0;align=center;html=1;verticalAlign=top;shape=mxgraph.electrical.resistors.resistor_1;rotation=90;" vertex="1" parent="1">
          <mxGeometry x="610" y="860" width="100" height="20" as="geometry" />
        </mxCell>
        <mxCell id="F8mklJY-4b8WDCU4vkqr-38" value="" style="verticalLabelPosition=bottom;shadow=0;dashed=0;align=center;html=1;verticalAlign=top;shape=mxgraph.electrical.mosfets1.n-channel_mosfet_1;" vertex="1" parent="1">
          <mxGeometry x="710" y="750" width="95" height="100" as="geometry" />
        </mxCell>
        <mxCell id="F8mklJY-4b8WDCU4vkqr-42" value="" style="endArrow=oval;html=1;rounded=0;entryX=0;entryY=0.5;entryDx=0;entryDy=0;entryPerimeter=0;endFill=1;" edge="1" parent="1" target="F8mklJY-4b8WDCU4vkqr-37">
          <mxGeometry width="50" height="50" relative="1" as="geometry">
            <mxPoint x="600" y="820" as="sourcePoint" />
            <mxPoint x="710" y="820" as="targetPoint" />
          </mxGeometry>
        </mxCell>
        <mxCell id="F8mklJY-4b8WDCU4vkqr-45" value="V&lt;sub&gt;dd&lt;/sub&gt;" style="verticalLabelPosition=top;verticalAlign=bottom;shape=mxgraph.electrical.signal_sources.vdd;shadow=0;dashed=0;align=center;strokeWidth=1;fontSize=24;html=1;flipV=1;" vertex="1" parent="1">
          <mxGeometry x="750" y="690" width="60" height="40" as="geometry" />
        </mxCell>
        <mxCell id="F8mklJY-4b8WDCU4vkqr-47" value="" style="endArrow=none;html=1;rounded=0;entryX=0;entryY=0.5;entryDx=0;entryDy=0;entryPerimeter=0;" edge="1" parent="1" target="F8mklJY-4b8WDCU4vkqr-37">
          <mxGeometry width="50" height="50" relative="1" as="geometry">
            <mxPoint x="660" y="820" as="sourcePoint" />
            <mxPoint x="650" y="700" as="targetPoint" />
          </mxGeometry>
        </mxCell>
        <mxCell id="F8mklJY-4b8WDCU4vkqr-50" value="" style="endArrow=oval;html=1;rounded=0;exitX=1;exitY=0.5;exitDx=0;exitDy=0;exitPerimeter=0;endFill=1;" edge="1" parent="1" source="F8mklJY-4b8WDCU4vkqr-37">
          <mxGeometry width="50" height="50" relative="1" as="geometry">
            <mxPoint x="520" y="670" as="sourcePoint" />
            <mxPoint x="777" y="920" as="targetPoint" />
            <Array as="points">
              <mxPoint x="777" y="920" />
            </Array>
          </mxGeometry>
        </mxCell>
        <mxCell id="F8mklJY-4b8WDCU4vkqr-53" value="" style="endArrow=open;html=1;strokeWidth=1;endFill=0;endSize=20;rounded=0;exitX=0.5;exitY=0;exitDx=0;exitDy=0;exitPerimeter=0;" edge="1" parent="1" source="F8mklJY-4b8WDCU4vkqr-56">
          <mxGeometry width="100" relative="1" as="geometry">
            <mxPoint x="280" y="600" as="sourcePoint" />
            <mxPoint x="120" y="600" as="targetPoint" />
            <Array as="points">
              <mxPoint x="283" y="600" />
            </Array>
          </mxGeometry>
        </mxCell>
        <mxCell id="F8mklJY-4b8WDCU4vkqr-56" value="" style="pointerEvents=1;verticalLabelPosition=bottom;shadow=0;dashed=0;align=center;html=1;verticalAlign=top;shape=mxgraph.electrical.signal_sources.signal_ground;" vertex="1" parent="1">
          <mxGeometry x="260" y="610" width="45" height="30" as="geometry" />
        </mxCell>
        <mxCell id="F8mklJY-4b8WDCU4vkqr-57" value="" style="pointerEvents=1;verticalLabelPosition=bottom;shadow=0;dashed=0;align=center;html=1;verticalAlign=top;shape=mxgraph.electrical.electro-mechanical.loudspeaker;" vertex="1" parent="1">
          <mxGeometry x="780" y="690" width="65" height="100" as="geometry" />
        </mxCell>
        <mxCell id="F8mklJY-4b8WDCU4vkqr-58" value="" style="rounded=1;whiteSpace=wrap;html=1;fillColor=none;strokeColor=#0000FF;dashed=1;strokeWidth=3;" vertex="1" parent="1">
          <mxGeometry x="90" y="410" width="150" height="230" as="geometry" />
        </mxCell>
        <mxCell id="F8mklJY-4b8WDCU4vkqr-59" value="" style="rounded=1;whiteSpace=wrap;html=1;fillColor=none;strokeColor=#FF0000;dashed=1;strokeWidth=3;" vertex="1" parent="1">
          <mxGeometry x="800" y="315" width="150" height="140" as="geometry" />
        </mxCell>
        <mxCell id="F8mklJY-4b8WDCU4vkqr-60" value="" style="rounded=1;whiteSpace=wrap;html=1;fillColor=none;strokeColor=#FF0000;dashed=1;strokeWidth=3;" vertex="1" parent="1">
          <mxGeometry x="800" y="660" width="150" height="140" as="geometry" />
        </mxCell>
        <mxCell id="F8mklJY-4b8WDCU4vkqr-61" value="&lt;font color=&quot;#009900&quot; style=&quot;font-size: 14px;&quot;&gt;Электретный микрофон&lt;br&gt;с усилителем&lt;/font&gt;" style="text;html=1;align=center;verticalAlign=middle;whiteSpace=wrap;rounded=0;" vertex="1" parent="1">
          <mxGeometry x="125" y="150" width="95" height="30" as="geometry" />
        </mxCell>
        <mxCell id="F8mklJY-4b8WDCU4vkqr-62" value="&lt;font color=&quot;#0000ff&quot; style=&quot;font-size: 14px;&quot;&gt;PC AUDIO&lt;/font&gt;" style="text;html=1;align=center;verticalAlign=middle;whiteSpace=wrap;rounded=0;" vertex="1" parent="1">
          <mxGeometry x="90" y="429" width="110" height="30" as="geometry" />
        </mxCell>
        <mxCell id="F8mklJY-4b8WDCU4vkqr-63" value="&lt;font color=&quot;#ff0000&quot; style=&quot;font-size: 14px;&quot;&gt;Соленоид&lt;/font&gt;" style="text;html=1;align=center;verticalAlign=middle;whiteSpace=wrap;rounded=0;" vertex="1" parent="1">
          <mxGeometry x="860" y="330" width="60" height="30" as="geometry" />
        </mxCell>
        <mxCell id="F8mklJY-4b8WDCU4vkqr-64" value="&lt;font color=&quot;#ff0000&quot; style=&quot;font-size: 14px;&quot;&gt;Пьезоизлучатель&lt;/font&gt;" style="text;html=1;align=center;verticalAlign=middle;whiteSpace=wrap;rounded=0;" vertex="1" parent="1">
          <mxGeometry x="845" y="660" width="60" height="30" as="geometry" />
        </mxCell>
        <mxCell id="F8mklJY-4b8WDCU4vkqr-65" value="MIC" style="text;html=1;align=center;verticalAlign=middle;whiteSpace=wrap;rounded=0;" vertex="1" parent="1">
          <mxGeometry x="140" y="455" width="60" height="30" as="geometry" />
        </mxCell>
        <mxCell id="F8mklJY-4b8WDCU4vkqr-69" value="LEFT" style="text;html=1;align=center;verticalAlign=middle;whiteSpace=wrap;rounded=0;" vertex="1" parent="1">
          <mxGeometry x="143" y="500" width="60" height="30" as="geometry" />
        </mxCell>
        <mxCell id="F8mklJY-4b8WDCU4vkqr-70" value="RIGHT" style="text;html=1;align=center;verticalAlign=middle;whiteSpace=wrap;rounded=0;" vertex="1" parent="1">
          <mxGeometry x="150" y="540" width="60" height="30" as="geometry" />
        </mxCell>
        <mxCell id="F8mklJY-4b8WDCU4vkqr-71" value="" style="endArrow=open;html=1;strokeWidth=1;endFill=0;endSize=20;rounded=0;exitX=0.5;exitY=0;exitDx=0;exitDy=0;exitPerimeter=0;" edge="1" parent="1">
          <mxGeometry width="100" relative="1" as="geometry">
            <mxPoint x="283" y="890" as="sourcePoint" />
            <mxPoint x="120" y="880" as="targetPoint" />
            <Array as="points">
              <mxPoint x="283" y="880" />
            </Array>
          </mxGeometry>
        </mxCell>
        <mxCell id="F8mklJY-4b8WDCU4vkqr-72" value="" style="rounded=1;whiteSpace=wrap;html=1;fillColor=none;strokeColor=#0000FF;dashed=1;strokeWidth=3;" vertex="1" parent="1">
          <mxGeometry x="90" y="690" width="150" height="230" as="geometry" />
        </mxCell>
        <mxCell id="F8mklJY-4b8WDCU4vkqr-73" value="&lt;font color=&quot;#0000ff&quot; style=&quot;font-size: 14px;&quot;&gt;USB&lt;/font&gt;" style="text;html=1;align=center;verticalAlign=middle;whiteSpace=wrap;rounded=0;" vertex="1" parent="1">
          <mxGeometry x="90" y="709" width="110" height="30" as="geometry" />
        </mxCell>
        <mxCell id="F8mklJY-4b8WDCU4vkqr-77" value="" style="pointerEvents=1;verticalLabelPosition=bottom;shadow=0;dashed=0;align=center;html=1;verticalAlign=top;shape=mxgraph.electrical.signal_sources.signal_ground;" vertex="1" parent="1">
          <mxGeometry x="260" y="890" width="45" height="30" as="geometry" />
        </mxCell>
        <mxCell id="F8mklJY-4b8WDCU4vkqr-78" value="" style="endArrow=open;html=1;strokeWidth=1;endFill=0;endSize=20;rounded=0;" edge="1" parent="1">
          <mxGeometry width="100" relative="1" as="geometry">
            <mxPoint x="200" y="840" as="sourcePoint" />
            <mxPoint x="120" y="840" as="targetPoint" />
          </mxGeometry>
        </mxCell>
        <mxCell id="F8mklJY-4b8WDCU4vkqr-79" value="" style="endArrow=open;html=1;strokeWidth=1;endFill=0;endSize=20;rounded=0;" edge="1" parent="1">
          <mxGeometry width="100" relative="1" as="geometry">
            <mxPoint x="200" y="800" as="sourcePoint" />
            <mxPoint x="120" y="800" as="targetPoint" />
          </mxGeometry>
        </mxCell>
        <mxCell id="F8mklJY-4b8WDCU4vkqr-80" value="" style="endArrow=open;html=1;strokeWidth=1;endFill=0;endSize=20;rounded=0;exitX=0.5;exitY=0;exitDx=0;exitDy=0;exitPerimeter=0;" edge="1" parent="1" source="F8mklJY-4b8WDCU4vkqr-81">
          <mxGeometry width="100" relative="1" as="geometry">
            <mxPoint x="195" y="760" as="sourcePoint" />
            <mxPoint x="115" y="760" as="targetPoint" />
          </mxGeometry>
        </mxCell>
        <mxCell id="F8mklJY-4b8WDCU4vkqr-81" value="V&lt;sub&gt;dd&lt;/sub&gt;" style="verticalLabelPosition=top;verticalAlign=bottom;shape=mxgraph.electrical.signal_sources.vdd;shadow=0;dashed=0;align=center;strokeWidth=1;fontSize=24;html=1;flipV=1;" vertex="1" parent="1">
          <mxGeometry x="252.5" y="720" width="60" height="40" as="geometry" />
        </mxCell>
        <mxCell id="F8mklJY-4b8WDCU4vkqr-88" value="" style="endArrow=none;html=1;rounded=0;exitX=0.5;exitY=0;exitDx=0;exitDy=0;exitPerimeter=0;entryX=0.7;entryY=1;entryDx=0;entryDy=0;entryPerimeter=0;" edge="1" parent="1" source="F8mklJY-4b8WDCU4vkqr-34" target="F8mklJY-4b8WDCU4vkqr-38">
          <mxGeometry width="50" height="50" relative="1" as="geometry">
            <mxPoint x="830" y="920" as="sourcePoint" />
            <mxPoint x="880" y="870" as="targetPoint" />
          </mxGeometry>
        </mxCell>
        <mxCell id="F8mklJY-4b8WDCU4vkqr-89" value="" style="endArrow=none;html=1;rounded=0;entryX=0;entryY=0.72;entryDx=0;entryDy=0;entryPerimeter=0;" edge="1" parent="1" target="F8mklJY-4b8WDCU4vkqr-38">
          <mxGeometry width="50" height="50" relative="1" as="geometry">
            <mxPoint x="660" y="820" as="sourcePoint" />
            <mxPoint x="690" y="710" as="targetPoint" />
          </mxGeometry>
        </mxCell>
        <mxCell id="F8mklJY-4b8WDCU4vkqr-90" value="" style="endArrow=none;html=1;rounded=0;entryX=1;entryY=0.5;entryDx=0;entryDy=0;entryPerimeter=0;exitX=1;exitY=0.5;exitDx=0;exitDy=0;exitPerimeter=0;" edge="1" parent="1" source="F8mklJY-4b8WDCU4vkqr-8" target="F8mklJY-4b8WDCU4vkqr-11">
          <mxGeometry width="50" height="50" relative="1" as="geometry">
            <mxPoint x="530" y="690" as="sourcePoint" />
            <mxPoint x="580" y="640" as="targetPoint" />
          </mxGeometry>
        </mxCell>
        <mxCell id="F8mklJY-4b8WDCU4vkqr-91" value="" style="endArrow=none;html=1;rounded=0;exitX=1;exitY=0.5;exitDx=0;exitDy=0;exitPerimeter=0;" edge="1" parent="1" source="F8mklJY-4b8WDCU4vkqr-7">
          <mxGeometry width="50" height="50" relative="1" as="geometry">
            <mxPoint x="560" y="490" as="sourcePoint" />
            <mxPoint x="580" y="520" as="targetPoint" />
          </mxGeometry>
        </mxCell>
        <mxCell id="F8mklJY-4b8WDCU4vkqr-92" value="" style="endArrow=none;html=1;rounded=0;entryX=0.7;entryY=1;entryDx=0;entryDy=0;entryPerimeter=0;" edge="1" parent="1" target="F8mklJY-4b8WDCU4vkqr-13">
          <mxGeometry width="50" height="50" relative="1" as="geometry">
            <mxPoint x="777" y="620" as="sourcePoint" />
            <mxPoint x="880" y="550" as="targetPoint" />
          </mxGeometry>
        </mxCell>
        <mxCell id="F8mklJY-4b8WDCU4vkqr-93" value="" style="endArrow=none;html=1;rounded=0;entryX=0;entryY=0.72;entryDx=0;entryDy=0;entryPerimeter=0;exitX=0;exitY=0.5;exitDx=0;exitDy=0;exitPerimeter=0;" edge="1" parent="1" source="F8mklJY-4b8WDCU4vkqr-11" target="F8mklJY-4b8WDCU4vkqr-13">
          <mxGeometry width="50" height="50" relative="1" as="geometry">
            <mxPoint x="560" y="450" as="sourcePoint" />
            <mxPoint x="610" y="400" as="targetPoint" />
          </mxGeometry>
        </mxCell>
        <mxCell id="F8mklJY-4b8WDCU4vkqr-94" value="" style="endArrow=none;html=1;rounded=0;entryX=0.7;entryY=0;entryDx=0;entryDy=0;entryPerimeter=0;exitX=0;exitY=0.5;exitDx=0;exitDy=0;exitPerimeter=0;" edge="1" parent="1" source="F8mklJY-4b8WDCU4vkqr-14" target="F8mklJY-4b8WDCU4vkqr-13">
          <mxGeometry width="50" height="50" relative="1" as="geometry">
            <mxPoint x="580" y="500" as="sourcePoint" />
            <mxPoint x="630" y="450" as="targetPoint" />
          </mxGeometry>
        </mxCell>
        <mxCell id="F8mklJY-4b8WDCU4vkqr-95" value="" style="endArrow=none;html=1;rounded=0;exitX=1;exitY=0.5;exitDx=0;exitDy=0;exitPerimeter=0;" edge="1" parent="1" source="F8mklJY-4b8WDCU4vkqr-14">
          <mxGeometry width="50" height="50" relative="1" as="geometry">
            <mxPoint x="640" y="350" as="sourcePoint" />
            <mxPoint x="780" y="310" as="targetPoint" />
            <Array as="points">
              <mxPoint x="740" y="310" />
            </Array>
          </mxGeometry>
        </mxCell>
        <mxCell id="F8mklJY-4b8WDCU4vkqr-96" value="" style="pointerEvents=1;verticalLabelPosition=bottom;shadow=0;dashed=0;align=center;html=1;verticalAlign=top;shape=mxgraph.electrical.resistors.resistor_1;rotation=0;" vertex="1" parent="1">
          <mxGeometry x="500" y="810" width="100" height="20" as="geometry" />
        </mxCell>
      </root>
    </mxGraphModel>
  </diagram>
</mxfile>
